<?xml version="1.0" encoding="UTF-8"?>
<svg width="191px" height="48px" viewBox="0 0 191 48" version="1.1" xmlns="http://www.w3.org/2000/svg" xmlns:xlink="http://www.w3.org/1999/xlink">
    <!-- Generator: Sketch 52.4 (67378) - http://www.bohemiancoding.com/sketch -->
    <title>carbos</title>
    <desc>Created with Sketch.</desc>
    <g id="Page-1" stroke="none" stroke-width="1" fill="none" fill-rule="evenodd">
        <g id="Login" transform="translate(-157.000000, -715.000000)" fill="#FFFFFF">
            <path d="M182.17931,756.944 L182.17931,760.528 C181.624641,760.826668 181.069979,761.103999 180.51531,761.36 C178.4673,762.298671 176.227322,762.768 173.79531,762.768 C171.363298,762.768 169.133987,762.309338 167.10731,761.392 C165.080633,760.474662 163.320651,759.248008 161.82731,757.712 C160.333969,756.175992 159.171314,754.38401 158.33931,752.336 C157.507306,750.28799 157.09131,748.112012 157.09131,745.808 L157.09131,745.68 C157.09131,743.375988 157.507306,741.20001 158.33931,739.152 C159.171314,737.10399 160.344636,735.290675 161.85931,733.712 C163.373984,732.133325 165.1553,730.885338 167.20331,729.968 C169.25132,729.050662 171.491298,728.592 173.92331,728.592 C176.355322,728.592 178.573967,729.061329 180.57931,730 C181.133979,730.213334 181.667307,730.469332 182.17931,730.768 L182.17931,734.544 C181.240639,733.775996 180.195316,733.136003 179.04331,732.624 C177.421969,731.898663 175.672653,731.536 173.79531,731.536 C171.8753,731.536 170.093985,731.90933 168.45131,732.656 C166.808635,733.40267 165.400649,734.405327 164.22731,735.664 C163.053971,736.922673 162.136647,738.405325 161.47531,740.112 C160.813973,741.818675 160.48331,743.63199 160.48331,745.552 L160.48331,745.68 C160.48331,747.642676 160.82464,749.487991 161.50731,751.216 C162.18998,752.944009 163.139304,754.447994 164.35531,755.728 C165.571316,757.008006 167.000635,758.010663 168.64331,758.736 C170.285985,759.461337 172.045967,759.824 173.92331,759.824 C175.84332,759.824 177.635302,759.440004 179.29931,758.672 C180.365982,758.202664 181.325972,757.62667 182.17931,756.944 Z M211.38754,748.304 L211.38754,744.784 C210.619536,744.784 209.776878,744.773333 208.85954,744.752 C207.942202,744.730667 207.046211,744.72 206.17154,744.72 L202.93954,744.72 C200.166193,744.72 197.766217,744.901332 195.73954,745.264 C193.712863,745.626668 192.144879,746.405327 191.03554,747.6 C190.608871,748.026669 190.256875,748.623996 189.97954,749.392 C189.702205,750.160004 189.520874,751.002662 189.43554,751.92 C189.350206,752.837338 189.467538,753.754662 189.78754,754.672 C190.107542,755.589338 190.598203,756.431996 191.25954,757.2 C191.920877,757.968004 192.912867,758.597331 194.23554,759.088 C195.558213,759.578669 197.136864,759.824 198.97154,759.824 C200.20888,759.824 201.350201,759.717334 202.39554,759.504 C203.440879,759.290666 204.347536,759.013335 205.11554,758.672 C205.883544,758.330665 206.587537,757.946669 207.22754,757.52 C207.867543,757.093331 208.390205,756.634669 208.79554,756.144 C209.200875,755.653331 209.552872,755.162669 209.85154,754.672 C210.150208,754.181331 210.384872,753.712002 210.55554,753.264 C210.726208,752.815998 210.864873,752.421335 210.97154,752.08 C211.078207,751.738665 211.152873,751.472001 211.19554,751.28 L211.25954,750.992 C211.302207,750.992 211.344873,750.096009 211.38754,748.304 Z M189.11554,731.728 C192.571557,729.850657 196.432852,728.912 200.69954,728.912 C209.787585,728.912 214.33154,733.498621 214.33154,742.672 L214.33154,762 L211.25954,762 L211.25954,756.56 L211.06754,756.752 C210.982206,756.922668 210.832874,757.125332 210.61954,757.36 C210.406206,757.594668 210.160875,757.871998 209.88354,758.192 C209.606205,758.512002 209.254209,758.853332 208.82754,759.216 C208.400871,759.578668 207.942209,759.941332 207.45154,760.304 C206.960871,760.666668 206.395543,761.007998 205.75554,761.328 C205.115537,761.648002 204.45421,761.925332 203.77154,762.16 C203.08887,762.394668 202.320878,762.586666 201.46754,762.736 C200.614202,762.885334 199.739544,762.96 198.84354,762.96 C194.832853,762.96 191.707551,761.914677 189.46754,759.824 C187.227529,757.733323 186.10754,755.130682 186.10754,752.016 C186.10754,749.029318 187.376861,746.586676 189.91554,744.688 C192.454219,742.789324 195.77152,741.84 199.86754,741.84 L211.19554,741.84 C211.19554,736.847975 209.254226,733.690673 205.37154,732.368 C204.176867,731.983998 202.843547,731.792 201.37154,731.792 C199.899533,731.792 198.54488,731.866666 197.30754,732.016 C196.0702,732.165334 195.046211,732.367999 194.23554,732.624 C193.424869,732.880001 192.763543,733.125332 192.25154,733.36 C191.739537,733.594668 191.280875,733.839999 190.87554,734.096 C190.470205,734.352001 190.246207,734.48 190.20354,734.48 L189.11554,731.728 Z M238.61177,732.304 C237.9291,732.304 237.21444,732.346666 236.46777,732.432 C235.7211,732.517334 234.718443,732.826664 233.45977,733.36 C232.201097,733.893336 231.059775,734.607996 230.03577,735.504 C229.011765,736.400004 227.998442,737.765324 226.99577,739.6 C225.993098,741.434676 225.257106,743.610654 224.78777,746.128 L224.78777,762 L221.65177,762 L221.65177,729.36 L224.78777,729.36 L224.78777,738.384 C226.750446,734.586648 228.969091,732.090673 231.44377,730.896 C233.705115,729.65866 236.094424,728.997334 238.61177,728.912 L238.61177,732.304 Z M249.004,739.664 L249.004,752.976 C250.497341,755.664013 252.651986,757.647994 255.468,758.928 C258.284014,760.208006 261.227985,760.549336 264.3,759.952 C267.372015,759.354664 269.910657,757.840012 271.916,755.408 C273.452008,753.573324 274.401332,751.29068 274.764,748.56 C275.126668,745.82932 274.93467,743.216012 274.188,740.72 C273.44133,738.223988 272.07601,736.090676 270.092,734.32 C268.10799,732.549324 265.75068,731.664 263.02,731.664 C261.185324,731.664 259.521341,731.834665 258.028,732.176 C256.534659,732.517335 255.350671,732.911998 254.476,733.36 C253.601329,733.808002 252.780004,734.40533 252.012,735.152 C251.243996,735.89867 250.721335,736.485331 250.444,736.912 C250.166665,737.338669 249.857335,737.903996 249.516,738.608 L249.004,739.664 Z M245.804,715.28 L249.004,715.28 L249.004,736.272 C249.516003,735.546663 250.11333,734.832004 250.796,734.128 C251.47867,733.423996 252.406661,732.613338 253.58,731.696 C254.753339,730.778662 256.171992,730.032003 257.836,729.456 C259.500008,728.879997 261.249324,728.592 263.084,728.592 C266.241349,728.592 269.046654,729.487991 271.5,731.28 C273.953346,733.072009 275.766661,735.418652 276.94,738.32 C278.113339,741.221348 278.572001,744.335983 278.316,747.664 C278.102666,750.053345 277.452005,752.250657 276.364,754.256 C275.275995,756.261343 273.953341,757.871994 272.396,759.088 C270.838659,760.304006 269.174676,761.25333 267.404,761.936 C265.633324,762.61867 263.894675,762.96 262.188,762.96 C259.670654,762.96 257.142679,762.149341 254.604,760.528 C252.065321,758.906659 250.198673,757.200009 249.004,755.408 L249.004,762 L245.804,762 L245.804,715.28 Z M302.59623,759.824 C304.51624,759.824 306.297555,759.45067 307.94023,758.704 C309.582905,757.95733 310.990891,756.954673 312.16423,755.696 C313.337569,754.437327 314.254893,752.954675 314.91623,751.248 C315.577567,749.541325 315.90823,747.72801 315.90823,745.808 L315.90823,745.68 C315.90823,743.717324 315.5669,741.872009 314.88423,740.144 C314.20156,738.415991 313.252236,736.912006 312.03623,735.632 C310.820224,734.351994 309.390905,733.349337 307.74823,732.624 C306.105555,731.898663 304.345573,731.536 302.46823,731.536 C300.54822,731.536 298.766905,731.90933 297.12423,732.656 C295.481555,733.40267 294.073569,734.405327 292.90023,735.664 C291.726891,736.922673 290.809567,738.405325 290.14823,740.112 C289.486893,741.818675 289.15623,743.63199 289.15623,745.552 L289.15623,745.68 C289.15623,747.642676 289.49756,749.487991 290.18023,751.216 C290.8629,752.944009 291.812224,754.447994 293.02823,755.728 C294.244236,757.008006 295.673555,758.010663 297.31623,758.736 C298.958905,759.461337 300.718887,759.824 302.59623,759.824 Z M302.46823,762.768 C300.036218,762.768 297.806907,762.309338 295.78023,761.392 C293.753553,760.474662 291.993571,759.248008 290.50023,757.712 C289.006889,756.175992 287.844234,754.38401 287.01223,752.336 C286.180226,750.28799 285.76423,748.112012 285.76423,745.808 L285.76423,745.68 C285.76423,743.375988 286.180226,741.20001 287.01223,739.152 C287.844234,737.10399 289.017556,735.290675 290.53223,733.712 C292.046904,732.133325 293.82822,730.885338 295.87623,729.968 C297.92424,729.050662 300.164218,728.592 302.59623,728.592 C305.028242,728.592 307.257553,729.050662 309.28423,729.968 C311.310907,730.885338 313.070889,732.111992 314.56423,733.648 C316.057571,735.184008 317.220226,736.97599 318.05223,739.024 C318.884234,741.07201 319.30023,743.247988 319.30023,745.552 L319.30023,745.68 C319.30023,747.984012 318.884234,750.15999 318.05223,752.208 C317.220226,754.25601 316.046904,756.069325 314.53223,757.648 C313.017556,759.226675 311.23624,760.474662 309.18823,761.392 C307.14022,762.309338 304.900242,762.768 302.46823,762.768 Z M344.92446,734.928 C344.625792,734.714666 344.209796,734.458668 343.67646,734.16 C343.143124,733.861332 342.119134,733.424003 340.60446,732.848 C339.089786,732.271997 337.660467,731.888001 336.31646,731.696 C334.972453,731.503999 333.521801,731.631998 331.96446,732.08 C330.407119,732.528002 329.116465,733.43466 328.09246,734.8 C327.196456,736.464008 327.079123,737.903994 327.74046,739.12 C328.401797,740.336006 329.489786,741.221331 331.00446,741.776 C332.519134,742.330669 334.257784,742.94933 336.22046,743.632 C338.183136,744.31467 340.028451,744.986663 341.75646,745.648 C343.484469,746.309337 344.892455,747.333326 345.98046,748.72 C347.068465,750.106674 347.505794,751.781324 347.29246,753.744 C347.036459,756.34668 346.108468,758.383993 344.50846,759.856 C342.908452,761.328007 341.031137,762.181332 338.87646,762.416 C336.721783,762.650668 334.535138,762.597335 332.31646,762.256 C330.097782,761.914665 328.124469,761.360004 326.39646,760.592 C324.668451,759.823996 323.505796,759.056004 322.90846,758.288 L324.44446,755.536 C324.871129,755.834668 325.45779,756.218664 326.20446,756.688 C326.95113,757.157336 328.337783,757.786663 330.36446,758.576 C332.391137,759.365337 334.257785,759.76 335.96446,759.76 C338.737807,759.76 340.785787,759.14134 342.10846,757.904 C343.431133,756.66666 344.09246,755.02401 344.09246,752.976 C344.09246,751.781327 343.505799,750.704005 342.33246,749.744 C341.159121,748.783995 339.825801,748.048003 338.33246,747.536 C336.839119,747.023997 334.940472,746.512003 332.63646,746 C329.607112,745.31733 327.292468,743.98401 325.69246,742 C324.092452,740.01599 323.676456,737.808012 324.44446,735.376 C325.212464,732.986655 326.780448,731.194673 329.14846,730 C331.516472,728.805327 334.023113,728.399998 336.66846,728.784 C338.161801,728.997334 339.729785,729.41333 341.37246,730.032 C343.015135,730.65067 344.284456,731.215997 345.18046,731.728 L346.52446,732.496 L344.92446,734.928 Z" id="carbos"></path>
        </g>
    </g>
</svg>